<?xml version="1.0" encoding="UTF-8"?>
<svg id="_レイヤー_1" data-name="レイヤー_1" xmlns="http://www.w3.org/2000/svg" version="1.1" viewBox="0 0 1198.9 325.1">
  <!-- Generator: Adobe Illustrator 30.0.0, SVG Export Plug-In . SVG Version: 2.1.1 Build 123)  -->
  <path d="M434.9,72.5l-3-4,.2,4.8,4.5,3.7-.8,11.9-3.9,1.6,3.1,3.5c.1,2-1.6,6.7-2.6,8.5-1.6,2.8-1.1-3-4.5,0l-4.8-8.2.8-1.8-3,2.5,2.9,1.9-.8,7.5,4.9-.9-4,5,6-3c.3,3.4.4,7.8-4,8l-.2-2.7h-4.6s-.2,2.7-.2,2.7l-9-.4c-1.2-.9-3.5-15.8-3-17.9s6.6-2.6,6-5.7l-7,3c-.5-4.6-.2-9.3-.7-13.8s-2-4.6-1.9-5.7c.3-5.9,6.1-.2,4.6-5.5l2.5,2c2.3-5.1,3.9-2.5,6.9-3.1,5.9-1.1,11-4,16,2l-.5,4.1ZM420.9,80.5l-2,1.5.9,3.1-1.9,1.9,2,2.5-2,2,5-2v-1.9c-3.9.4-1.1-5.9-2-7.1Z"/>
  <path d="M358.9,77.5l-2,4.5c0,.8,5.5,2.8,4,4.5s-1.6-2.5-3-2l-3,2.5,2.9.6v2.9c0,0,4.1-1,4.1-1v8s2.9,0,2.9,0c.7,5.7,2.3,9.6-.8,14.9l3,1c-2.9-.6-3.1,1-4.5,3l-6.5-6-.8,6.4,7.8,3.6c-.8-1.8,0-3.3,1.3-4.6s3.3-2.6,2.7.2l-6.3,10.2-9.3,2.8c-5.3-2.3-6.1-5.3-4.5-10.6l-2,1-1.1-9.6-1.9-.9,2-3.5c-6.5-.2-6.3-9.1-8.5-14s-3.4-3.4-3.5-6l3.9-1.1-.5-2.9c2.3-4,5.5-1.7,7.8-2.3s5.8-2.6,9.5-2.5,3.4,3,6.3.7ZM347.9,80.5c-1.1-.9-7.6,2.9-8.7,3.7-3.1,2.4,0,5.2,1.2,3.2l1-3,5,2,1-2-1.1-1.5,1.7-2.5Z"/>
  <path d="M390.6,70.8c.6.6,1.2,4,2,5.5s2.2,1.1,2.3,1.9c.3,1.9,0,5.8,1,8.3h-2.3s-.7,3-.7,3l4-1-.8,2.9-1.2.6,2,1.2c1.2,9,1.3,16.9-2,25.3h-3s-.5-3-.5-3c-1.8,2.3-10.9,5-12.5,2.2s-.4-7.7-1-10.6-1.7-.6-1.9-1.4c-1.4-6.7-.8-14.8-4.9-21-.3-1.9,4.7-2.4,2.9-6.3l-3,3-.7-7.8,8.2-4.2.5,4h3s.3-2.7.3-2.7c2.4-1.6,6.3-2.3,8.5,0ZM392.6,81.8c-1.3-1.1-10-3-10.7-2.3v3s3.5-2,3.5-2l3.1,4.9,5.4-.9c.1-.1-1-2.5-1.3-2.7ZM392.9,102.5l-4,1.5,2,7.5h-2.5s.5,3,.5,3l6-2c.8-2.7-1.5-1.5-2-2.7-.7-1.8-.4-5.3,0-7.3Z"/>
  <g>
    <path d="M358.9,139.5l1.1,5.3-3.1,2.2,1,4.5,13.1-5.5,6.5,12.6c-1.9,1.8-.6,6-1.1,7s-2,.8-2.5,1.7c-1.7,3.4-3.3,8.5-5.1,11.5-2.9,5-4.2,5-6.6,10.5s-8,12.7-11.3,12.3l.6,5c-1.3,1.4-3.2,2.1-4.4,3.6-3,3.8-7.4,11-10.7,14.3s-2.9.8-3.3,1.2c-.6.7.2,2.5-.4,3.6s-5.9,4-7.2,5.4c-6.7,7.1-12.8,13.2-18.6,19.4s-5.4,3.1-7.3,4.5-3.7,5-5.7,5.5-4.5-2.7-8,.5l.5,2,4,1c-4.1,5-8.3-1.1-10.5,4l4,1-6.2,4.3c-4,2.8-10.9,4.7-12.8,8.7l-4-3c0,5.4-4.9,6.2-8.7,8.9l-2.8-1.8c-2.3,2.3-6.7,3-4.6,6.9-6.5,2.3-13.9,8.7-20.9,7.1l2,2.5c-2.4,3.7-5.7,2.1-8,2.9-3.9,1.3-6.5,4.6-11,2.6l-.5,3-18,6-3.5-5c-1.6,3.3.5,3.5,2,6-4-.7-9.1,3.7-12.5,3.6s-5.1-1.4-4.5-3.1,7.1-.3,9-1.5l-1.5-3-3,3-1.5-2,3-2h-6s2,3,2,3c-5.6.8-9.2-.8-12-5.5,11.1.1,10.3-4.7,3.5-11.5l3.5,7.5-4,2.5-1.5-3-4,4c-.6-1.6-4-2.7-4.4-3.2s.2-5.1-2.8-6.8l1.6-4c-10.2,1.7-12.4-2.9-17-10.5l4-4-2-1.5-1,4c-8-1.6-4.4-8.9-7-15l15-4-6,3c-.3,1.8,1.9.5,2.7,1.2,1.8,1.6,1.3,5.3,5.3,2.3l-2.9-4.4c2.4,0,2.4-2.7,4-3.6s8-2.1,8.5-2.1c.7,0,1.8,1.4,3.1,1.5,5.1.4,9.9,2.4,10.5-4.3l-2.1-1.5c4.5-.3,10.2-1.6,14.5-3s3.3-2.8,5-3,4.9,1.6,5.5,1-.6-3.8,2.5-4l-1.5,3,3,3c-1-5.6,2.2-3.9,3.8-5.1s-1-2.3,1.2-3.3l4-.5-1-2c5.3,2.3,9.1-4.2,11.7-4.9s3.7.9,4.1.7.6-2.1,2.4-3.1c3.1-1.8,9.2-4.1,13-6,6.1-3,13.6-5,18.2-9.7,3-.6-.9,4.8-.7,5.9-1.7,1.1-6.7-1.7-5.9,2.1l10-2-1.1-7.5c4-3,7.4-1.6,11.9-1.7l3.2-4.3-2-1.5,10.5-7,.5,3,4-1-3-2.5c4-3.6,7.3-4.7,9,1.5l4.9-2.1-.4-3.9h-5s-.5-2-.5-2l13.5-10c2,3.7-4.1,4.4-4.5,8l4.9-3.6,5,1.6-4-4h5s-.5-2-.5-2l-2.5.5,8-6-2-1.5c4-4.1,8.5-10.3,14.9-8.2l1.1-1.8.5,3,5.5-5.5-11,2.5,4-6,7.6,2.9.9,5.1,2.4-4.5-2.7-1.6.9-1.8-6-.5c5.5-6.4,14.2-12.7,17-20.5l1,3,5.9-2.1-.5-5,5.6-2.9ZM369.9,160.5v-5s-10,8.7-10,8.7v7.3s3-1.7,3-1.7v-8.3s2.9,2,2.9,2l1-4,3,1ZM339.9,181.5c-2.9-.6-1.6.8-2.3,2.2-1.4,2.9-3.1,5.8-4.3,8.7s-2.5,1.2.1,3.1l4.4-5.8,2.1-8.2ZM346.9,197.5c-4.1-6.5-5.5,0-6.5.9-2.2,1.8-6.5,2.2-6.4,6.1l5.5-4,2.5,2,2.1-5.9,2.9.9ZM309.9,203.5l-6-1-5,8c3,.5,6.2-3.4,6-6l3.5,2,1.5-3ZM323.9,212.5c1.1-1.2,1.8-2.2,3.5-3l-1-4c-1.1,4.5-5.6,5-10,5.4l-1.5,3.6c2.1.1,3.1-1.8,5.2-2.3s3.3.5,3.8.3c-.1.1.4,1.3-.2,1.8-.8.8-3.6-1.1-2.8,2.2,1.8-1.6,6.7.3,7,0s-.3-1.5.1-2.1c1.3-2,4.6-3.4,3.9-6.9-2.5,2.6-4.3,4.1-8,5ZM305.9,222.5l-2-4-1,5c2.4-1.9,1.8.8,2.6.9,1.3.2,4.5-.4,6.2,0l1.1-3.9-7,2ZM322.9,232.5c0-4.7,5.3-4.8,3-10l-7,3.5,6-.5-5,4,3,3ZM275.8,235.6h-6.7c0,0-4.8,5.7-4.8,5.7l-4.4-.8c.6,2.2,3.4-.3.9,3.2l-6.9,5.8c2.2,0,4.4-.7,4,2h1c-2-6.4,7.7-4,7-10,2.6,2.8,8.4,1.2,8.2-2.8l2.8-.2-1.1-2.9ZM232.9,241.5c-.4-.4-4.9,1.5-5.4,1.9-1.2,1.1-.4,2.7-.7,3.1s-10.1-1.9-9,2l7,1-2,2h3s0-3,0-3c4,1.7,6.4-.8,10-2.5l-5-1.5,2-3ZM223.9,253.5l-2.1,2.9-3.9,1.6,3,2.5h-5s1.5,3,1.5,3l11.5-3c.6-3.7-2-1-4-1,.7-3.6-3.5-2.4-1-6ZM259.7,261.3l-.8-6.8c-.5,5.4-2.2,3-2.8,3.3-2.4,1.6-4.8,3.4-4.3,6.7l3-4,1,3,3.8-2.2ZM193.9,260.5c-3.4-5.3-9-2.1-14-2l3.6,2.9,1.9-2,8.5,1.1ZM193.9,265.5l-7,.5,3,.5v6s-4-1-4-1v3s5.5-1.9,5.5-1.9l-.5-6.1,3-1ZM199.9,282.5c-4.9-.6-7.3-1.7-12,1.5l7.5.7,1,1.8,3.5-4ZM169.9,283.5l-6.4-.9-6.1,6.6-4-1.7-.5,2,5.5,2.6c4.8,0,5-6,9.8-5.6l1.7-2.9Z"/>
    <path d="M446.9,290.5c-.2.9.1,2,0,3-4.9-2.4-7.6,1.2-12.4,2-2.4-.1-8-16.4-8.2-18.9s2-2.5,1.6-3c-4.5-.7-3.6-9.2-5-13l3-1-3.5-1-4-29c-1-1.7-3.6-.3-4.9,0-8.4,2.3-17.5,8.4-24.8,10.2s-5.8-3.4-11.4-7.6c-.3-5-3-9.1-4.9-13.8s-.2-5.6-3.5-7.5c5.7-3,12.8-7.7,19-4.5l-1-3c8-2.8,16.6-4.5,22.6-11-4.4-13.4-9.4-26.8-9.6-41,7.9-2.7,14.2,1,22-2l1.2,15.9h1.8c0,.1-2,3.1-2,3.1l2.5,2c3.4-1.5-2-16-2.5-19.3l3-4.2,5.9-.7.2-2.8c2.9,1.2,6.1-.6,8,2.5-1.5,2.5-3.9.3-6,.5v5c1.5,0,3.4,0,4.8-.7,3.3-1.5,1.1-7.6,4.7-8.4s1.1,3.3,4.5,3.1l-4,5,6,2.5-2,3.5,3-1-1.1,3.9h-3.9c-.6,3.8,2,1.2,4,1.1,1.2,1.3-.8,14.7-1.4,17.1s-3.5,5.7-2.6,6.9c1.6,1.9,2.1-1.9,2.6-2,2.2-.5,5.3.5,7.8,0s10.7-3.8,11.5-2.9l-5,5.5,8-2.5c1.8-2.1-4.2-2.1-1-3.5,7-3.1,16.4-1.5,23.5-4.5l4.5,5-2-6,6.4.9.6,2.1-3.5,1-1.5,6c3.1.7,2.9-3.2,2-4.9,8.4-3.7,5.1,11.9,9,16.4-3.9,1.3-1.1,6.6-6.1,5.6l1.7,2.5c0,.2-2.3,3.7-2.8,4.1-1.3,1.3-6.6.3-1,2.9l-7,20.5h-4.5s-.5,4-.5,4l2,.5-6.5,11.5c-3.8,1.4-1.5-4.4-5-3.7s-3.3,4.2-6.4,2.6l-1.1-6.9h-3s-1,4-1,4c1.6-5.3-3.1-5.9-1.9-10.4,4.3-2.4,1.5-2.5,2.2-5.6,1.5-6,5.1-12.2,4.6-18l3-2c-2.4,1.3-7.5,1.4-9.3,2.1s-.8,1.6-1.5,1.8c-6,2.4-11.3,4.3-16.8,8l.6,4.1-3,1.5c4.6,1.3,9.2,8.4,4,11l2,5-2,1.5,3.1.6c1.4,4.8.7,11.5,1.8,15.9s.5.5,1.1,4.9,1.6,8.2,1,12.5l-3-1.5c.5,2.8,3.8,2.5,4.5,3.5s3.6,12.1-1,10l-3-4c-2.2,4.9-1.8,5.8-7.5,7,.5-2.4.8-3.4,0-6l-2.5,2c-3.8-5.5-7.3-1.9-2.6,1.5-2.5,3.8,2.1,3.1,5.1,2.5ZM443.9,151.5h-4c1.1,5.1-1.6,7.5,1,13l-2-4-3,3.5,2.6,2.4-1.5,5.1c3.2.7,2.3-3.3,3.1-5.2s1.7-.8,1.9-1.5c.9-4.1-1.4-9.3,2-13.3ZM431.9,153.5l-1.9.7c1.2,2-4.6,3.9-3,5.2s6.5-6.3,6,1c2.5-.7,4.1-2.2,4-5l-3,3-2-5ZM411.9,180.5l-1-4,2,12c.3-3.4,4.4-.5,3-6l-3,3,2-6-3,1ZM478.6,179.8c-1.3-.5-2.4-.4-3.7-.3l3,2-1,3h6.9c0,0,1.1-3,1.1-3-4,1.6-5.7-1.4-6.3-1.7ZM489.8,190.6h-2.9c0-.1.5,4.9.5,4.9l-2-1-5.5,6,7.5-3,.5,2.5,2,.5,1.1-3.4-2-2.6,2-.6-1.2-3.3ZM445.8,193.7c-1.3-.6-1.6,0-2.4.8l-4.4,5c2-.7,3.1-2.2,3,.9h1.9c.1-2.4,1.7-3.1,4-2.9.7-.6-1.9-3.7-2.1-3.8ZM413.9,202.5c-3.6-.7-12,7.8-12.7,8-1.4.4-4.4-.9-4.3,1l5,5-1-5h3s.5,3,.5,3l1.4-5.2,8.1-6.7ZM487.9,212.5l-2.6,1.5-.3,10.8-4.5,1.7-1.5,6h3s0-4,0-4l3,1,.2-2.7,3.8-1.3v-2.5s-2-1-2-1l3-5c-2.6-.8-2.2-1.9-2-4.5ZM440.9,219.5l-2,.5,1,5.5-2-1-1,4.5,1.9-.3,1.7,2.9.5-12ZM436.6,243.7c-.5-.5-3.3-1.5-3.7-1.2-1.8,1.5,1.8,2.1,2,2.7.8,2.8.2,7,1.9,9.9l-1.9,1.4c3.4-.2,1.6,5.3,4,7.5l-3,2.5h4s0-6,0-6l2.6.9,1.4-1.9h-4s2-3,2-3h-4c.2-1.7-.5-12-1.3-12.8ZM436.9,273.5c-3.6-2.5,0,11.3-3,7.3s-4.2-1.1-4,1.7c3.7-2.7,4.5,3.9,7.5,1l-.5-10ZM445.8,274.6h-3.9c0-.1,2,2.8,2,2.8l-3,2-2-3,1.5,6,1.5-2.9h4.9c0-.1-1.1-5-1.1-5Z"/>
  </g>
  <g>
    <path d="M1002.9,85.5c1.5,1.5,4.5-5.8,5-1.5s-5.5,5.3-1,9.5l-4-3-1,3.5,4,.5-2,8-5-.5,4,1.5c.9,4.4-4.3,1.9,0,5.5-1.5,3.2-4.6-1.7-6-.5-2.2,1.9,2.6,1.7,2,3h-3s0,3,0,3l4.4.9c2.6,2.6-1,7.5-1,8.6s1.6,1.3,1.2,3.5-2.1,4.9-4.6,4c.6,2.6,1.9,2.6-1,3.5l4,1-4,8.5,3-1.5c-2.8,13.9-.6,27.7,0,41.5l-4-.5,4,1.5c.8,4.2-.1,8.3,0,12.5s1.4,5.2,1.1,6.8-2.5,0-2.1,1.6c5.9.6,13.4,2.5,17.5-3l1,2,14.4-2-4,1c.7,1.3-1.3,5.9-.5,6,3.6.7,2.4-.9,1.5-3l2.5-.8,2.7,3.5,2.8.2c-1.9-6,2.9-5,6-8h-8s13.5-4,13.5-4l-2.5,6,3,2-9,3,.5-4-2.5,5,12.9-2.1-.9-10.9,3,3,.6-3.1c5.7-.6,11-5.1,16.4-2.9,1.6-2.2-3.2-2.1-2-3s6.5-.7,8.9-1.6,7.9-6.3,10.1-6.9,3.5.8,5.2.4,2.6-3.2,4.4-3.7,6.2,1.1,8.8-.1c4.9-2.2,2.5-4.5,3.7-6.8s4.6-2.7,5.3-4l3.5,1.8-1.5-3,19-14c2,2.4-2.8,2.6-3.5,4.5l2.9.5v4.9c2.2,0,1-3.6,1.5-4.7s3.8-3.3,4.1-3.2l2.5,7v-10s-5-.5-5-.5l6-5.5c1.2,2.3,1.4,5.3,2,7.5s-.8,1.8,2,1.5v-4s1.5,2,1.5,2c2.1-.9.2-2.9.7-3.7s5.1-3.6,5.8-5.1c1.1-2.4-.6-6.4,2-7.2l2,3,.2-2.8,2.6-.3c-.4-5.4,5.7-5.2,6.1-11.5l3,.6c-1.4-4.2,2.5-4.5,3-5.5,1.4-3-4,1.2-3-2l4.5-4.5-.5,5c3.1-2.1.6-5.2,6-4l-2-3c3.4,2.8,2.8-5.1,3.5-6.9,1.4-3.2,5.5-7.6,7.3-10.7s.9-6.2,4.2-7.3v18c-2.5,0-5.3,0-5,3l3-2v2.5s-3,3-3,3l2-.5-4,5.5c-.1,4.5,6.1-3.5,6,1l-11.5,20.3c-.5,0-2.5-3.2-3.5-.2s4.8-.2,4,3l-17,20.5c1.9.4,2.9-.2,4.5-1s16.4-15.4,19.4-18.5,3.3-9.6,10.8-4.3l.2,4.8-3-1c-.4,2.6,0,2.5,2,3.5-2.3,2.9-3,6.7-5,9.8s-2.8,0-2,2.7h3s-.2,3.3-.2,3.3c-12.5,18.4-29.1,33.5-46.8,46.7l20.7-9,13.3-5.5-2,2.5h4s-.5-5-.5-5c3.3-2.6,8.2-3.4,9.6-8,1.9-.2,1,2.1.5,3-4.9,7.9-14,15.3-19.6,22.8l-2.2-.8c-.8,2.5-2,1.1-2.3,1.4-4.2,3.1-.4,2.7-.4,4.1,0,2.6-6.3,3.5-6.9,4.8l-2-.8c.8-3.3,4.6-2.9,5.5-4.5s1.4-3.4-1-3.1c-.4,3.1-7.9,3-8.3,3.2s-.4,1.9-1.9,2.5-5.1,1.2-7.3,2.2h4.9c0,.1.6,2,.6,2,.9-2.7,4.5-2.8,3.5,1l2.5-3,2.5,3-21,12.6-4-1.6c-.1,1.2.4,2.9-.2,3.8s-14.6,6.3-16.8,7.2c-.6,2.9,1.4,2.1,3.5,2s16.9-2.5,18.2-3.4.3-1.1.4-1.6l3.5,1.7,8.5-2.7-7.7,6.8-5.9,3.2-.5-2h-2s-3.2,5.8-3.2,5.8l-3.3-.9-.6,2.1-3-2,.8,2.4c-1.3,3.7-5.8,1.5-6.6,1.8s-.2,1.8-2,2.4c-3.2,1.1-21.4,6.5-23.1,5.4l-.5-3-.7,2.9-28.8,1.2,8,2-1,3,3.4-2.1,19.6,5.1-3,1c2.3,3.9,4.7-1.1,8.6-1.9s3.7.7,5.4-.1v3c-7.2-.6-16.3,7.1-23.5,7.6s-9.7-1.7-11.9-1.6-.1,1.8-2,2.1c-9.4,1.3-18.4-1.9-27.6-3.1l2-3c-3.4-1.5-4.3,2-4.6,2-2.9.2-9.4-5.2-13.4-4.1-.4-2.6,2.2-3,4-3-2.9-2.9-.9-4.5,1-7.5,0-1.6-11.7-4.5-11,.5l4-1-.9,2.5,3.8,3.2-2.4,3.1.7,3.9,15.9,6.7v2.5c1.5,1,3.6-3.8,4.9-.5s.4,2.2-1.5,2.5c-5.9.9-12.9-.7-18.8-1l-1.2-2-.6,1.8-36.7-11-.6-2.6c-7.1,2.6-8.1-7.2-14.5-6.2l2-4c-2.5-1.4-3.2,2-3.5,2-4.1-.2-8.6-6.1-10.8-9.3s-4.8-8-5.1-8.8c-5.6-12.9-3.7-28.3-5.6-41.9,4.9-.8-1.7,5.9,3,5l1-6-5-1.5c1.4-1.1,1.9-2.2,2-3.9,1.2-13.8-1.5-27,2-40.8.2-.7,1.8-.7,1.8-1.2,0-5.7-3.2-11.9.4-18.3s3.5-.9,2.7-3.3h-2.5c-.7-1-.5-2.3-.5-3.5,0-6.2,2.3-25.8,3.8-31.5s4.5-11.4,4.9-11.9c.6-.8,1.1-1.6,2.1-1.9,4.4,1.6,7.3,1.5,11.8,1.3s1.6-1.2,2-1.1c1,.1,1.5,1.7,2.5,2.1,1.6.7,3.2-1.3,4.5,2.6l4-4,1,2,9.3-4.2.2-2.8,3.1.4.9,3.6ZM977.9,90.5l-6,1,2,3h-6c-.2,3.2,1.8,2.7,4,2v6c4.4.5,1.8-4.6,2-6.3s5.1-4.8,4-5.7ZM979.9,111.5l-7.7,4-2.9-1-.9,1.8-2.5-.9v6s3-1,3-1v4.3s-2,1.2-2,1.2l2,2.5-2,.6,1.5,5.4c1.6.6,3-6.1,3-6.5.2-3.1-2-6.7-.4-9.9l8.9-6.7ZM985.9,127.5l-6-2,2.9,3.1-1.5,4.9c4.6,3.6,5.4.6,2.6-3.6,1.6-.8,2.5,0,2-2.4ZM969.9,136.5l-3,.5,3,5.4-3.9,3.6-3-.5,3.5,4,2.5-5.5,3,.6-2-8ZM1146.5,167.1c1-1,4.7-5.1,3.9-6.6l-12.9,11.6-25.6,16.9c.9,2.1,3.7,1.1,5.2.4,5-2.5,13.8-10.1,18.5-13.8s7.4-5,11-8.5ZM962.9,171.5l-3.6,2,1.5,2.5-3,.5,2.8,4.7-1.8,4.3,4.8-3.6-.8-10.3ZM1088.3,188.9c1.4-.8,2.9-1.4,4.2-2.4l-1-2c-4.1.7-5.2,4.1-9.5,3-.5,1.4,4,.9,2,3s-6.9-.4-6,3c3-.1,6.3-.6,7.1-3.9l2.7.7c.2-.4.3-1.3.5-1.5ZM1161.9,184.5l-9,8c4,.9,8.6-4,9-8ZM1098.9,187.5c-3.1-1-1.9,2.8-3.2,3.8s-8.3.8-7.8,4.2c3.1,1.6,4.4-2,4.6-2,1.6-.2,3.5,1.4,5.4,1l1-7ZM1151.9,189.5l-4-1v3s-3-1-3-1l-1.2,3.8-4.8,1.2v2.9c0,0,5,1.1,5,1.1l-2-3,2.8.9,7.2-7.9ZM1077.9,196.5c-4.2-.9-7.1,3.3-7,7l-2-3-2,3-3-2v5s-2-3-2-3c-.5,10.3,3.2,3.8,5.7,3.1s3.4,1.2,4.2.8,1.6-5.6,6.1-3.9l-5-3c1.3,1,6.4-2.9,5-4ZM959.2,206.2c-.6-.3.3-2.1-1.3-1.7l-1,4h4s.9,10.4.9,10.4l-4.9,3.6c4.8.6,6.3,1.2,10-1.5l-3-6,2-.5-3-1,2-1c2.9-6.3-2.6-4.7-5.7-6.3ZM979.9,204.5c-5.1.6,1.1,6.5,0,9l4-.6,1-2.4h-3.9c0-.1-1.1-6-1.1-6ZM1094.9,205.5l-1,3.5-2.8.7-1.2,4.8,8-4.5-3-.5v-4ZM1010.9,220.5l6-.5v-4.5c0,0-2.6,4-2.6,4l-2.4-2.5c-3.4-2.4-3.6,7.9-1.1,8.5v-5ZM1065.9,222.5c.3-.3,1.4-7.1-1-7-.1,7.5-8.2,5.5-11.2,7s-5.5,4.3-4.8,5l9.3-2,.7-2,1.5,2c.7-3.9,5.1-2.7,5.5-3ZM1082.9,215.5c-5.3,0-9.6,3.9-15,3v3c.4.5,12-3.2,13.1-3.7s2.3.3,1.9-2.3ZM1033.9,218.5c-8.6-.9-1,3.9-2,5l-2.6,1,.6,3-2.5-2c-4.1,6.7,5.5,2.5,8.9.9,1.4,2.7,2.1,3.6,5.6,3.1l-3-1,1-3-6.9-4.2.9-2.8ZM1099.9,224.5h-8s2.5,5,2.5,5l-11.1,3-.5,4,15-6.1-.9-3.4,2.9-2.6ZM1076.9,237.5c1.3,0,2.7,0,4,0l-1.8-2.5,1.8-2-3-.5,3-4h-4s2-4,2-4c-5.6-.8-2,4-5,6.5l3,.5c-1.3,2.1,0,4.1,0,6-3.3.1-8.6-1.2-10,2l3,.5-2,2.5,8.8-3.2c.5-.5.1-1.2.2-1.8ZM1103.9,233.5c-.1-.4,6.6-5.2,2.5-5s-3,4-3.8,4.7c-1.7,1.2-6.6,1.6-7.7,4.3,3.1,1.5,4.2-1.9,4.7-2,1.1-.2,2.6.7,4.1.3,2.3-.6,13.1-2.9,13.1-4.8l-4.3-1.4-8.7,3.9ZM1034.9,237.5c-3.1-.7-1.8,1.9-2,4l-4-.6c-1.6,3.7-10.1,8.2-7,.6l-3-1v7c3.5.4,6.3-1.7,9,1-1-3.8,5-3.3,7.5-7l-.5-4ZM1065.7,243.3l.2-4.8-2.5,4-1-1.8-6.5-.2,3,1-2,3c3.4,0,6,1.3,8.8-1.2ZM971.9,247.5l1.5-3-6.5-3,1,8h3s-2-5-2-5l3,3ZM1110.1,244.2l-.7-1.8-9.5,6,16-2.5,1-3.5-6.8,1.7ZM979.9,255.5l-2-5-5,5.5c2.6,1.1,2.9,4.3,6,3.5-1.2-1.7-2.5-2.9-.5-4.7l1.5.7ZM1077.9,254.5c-3.4,1.7-7.9,0-10.3.3s-10.1,4.7-11.7,6.7c4.3-.3,7-3.1,11.5-3.5s6.2,2.4,9.9-.4l.6-3.1Z"/>
    <g>
      <path d="M742.8,48.6c.2,3.5,2.8,1.9,2.9,2.1,2.1,2.4,0,8.9.1,11.8l-2-2c.4,4.5,2,13.1-.6,17s-2.9.5-2.4,2h2s-6,26.5-6,26.5l28-.5-1,3h3s.6-2.9.6-2.9l7.3.9v-3c5.4,3.4,10.3,1.3,16,1l-1,3,8-3-3,4c4.4-2.9,11.1-5,14.5,0l.6-1.9c4,2.3,6.9-4.1,10.4.8l1.6,9.6c-1.5,1.4-4.8-1.1-4,2.5h4c-.6,3.4-.8,9.6-.4,13.2s3.3,8.9,2,14.2-4.6,4-.6,5.4c1.4,5.3-3.1,7.9-3.6,10.3s1.6,6.2,1,10.5c-1,7.1-4.5,15.3-6.3,23.2s-1.7,16.8-5.6,24.5h-2.5c0,0,2,3.4,2,3.4l-2.3,5.3-2.7.2v6.9c-.1,0-4,.1-4,.1l3,2.5-13,25.5c.5-1.5-.7-3.1-2-2s2.4,2.5-.5,2l-1.5-2c-1.3,4.6,3.6,2.6,4,5-3.1-.5-1.5,2.5-2.2,4.2s-1.9,2.7-2.5,4.5,1.6,7.3-5.2,7.3l1,3-2.5,1-2.5-4.9-3,1.5,2,1.5-4-.7-.5-1.3c-.9,3.5-1.9,1.4-4.5,1l1-4c-1.6-.4-.5,1.7-1.6,2-5.8,1.4-17.9-8.2-24.4-9l3-4h-3.9c0,.1-1.6,3-1.6,3l-19.5-14.7,1-6.3,4,.6,5-6.1-3-1,6-1.5c.6-4.1-2.4.5-4-2.5,4.2-3.7,2.7-9.5,9-12,8,2.6,12.3,11.3,21,11.5l4.2-21.3,4.8-2.7-2-1.6c-.4-1.5.6-9.6,1.1-11.6s1.8-.7,1.9-1.4c.3-1.4-.8-8,2-6.8l2,1.5v-2.3s3-.7,3-.7c.8-4.3-4.1.8-5-3,3.6.5,2.4-3.1,6-1l-.9-1.8,2.9-1.7c-.9-4.7-4.9,3.4-7,1.5.1-12.2,6-23.8,4-36h4s-2-1.6-2-1.6l-.9-5.9c-3.1-2.2-15.4,1-19.6.6s-4.6-2.1-5.9-2.1-.8,2.7-4.3,2.8-4.3-1.5-5.9-1.5-3.7,2.7-6.3,1.8c1.5-2.2,1-2.5-1.5-2s2,2.8-1.5,2l.2-3.8c5.2-.8,5.3-10.8,9.3-6.5,2.4-2.3,3.1-3.2,6.5-1.7.6-3.9-4.1,0-3-4.5l5-5.5-4,3-2-2-.5,4.1-4.3,1.1c-1.1,4.2-4.3,9-8.7,9.8l.5,6.1c-1.9.5-1.7-6.1-4-4s.9,5.1,1,6.5-1.6.4-2,1.3c-.8,2.2-1.1,5-2.1,7.2l4-4c1.1,4.2-2.5,5.5-2.8,6.6-1.1,3.2,0,8.4-2.7,12.3s-8,4.8-7.5,10l4-2.5c-1,5.7-2.7,12-8,15l3,2-1,2.5-1.5-2c-5.8,1.6-5,3.2-7.1,7s-4.7,4-.9,4.1c3.6-1.5,2.3-8.5,7-8,.8,1.4-.7,5.1-1.3,6.7-2.4,6.2-14,33.6-17.5,37s-2.9.4-3.7,1.8l1.9,1.9-9.5,16.5-.5-2.5-2.5-.5c-1.6,4.4-4.2,3.2.3,7.7l-.9,3.2-10.1-1.1c-6.2-2.9-11.1-4.4-16.6-6.7s-4.1-.3-6.2-1.6c-6-3.8-1.4-8.1,3.9-8.5l-2.1-1.5c2.3-4.5,4.3-12.1,10-12.6v-2.9c0,0-1.9,2-1.9,2-1-3.4,1.7-4.5,2.8-6.7,1.7-3.7-.8-5.7,7.2-6.3l-5-1.5c5.9-7.9,9.5-17.6,12.9-26.9l3.1-.6c-2.7-4.3-.1-6.9,1.1-11.5l4.9-2-2-1.1c-.2-1.2,0-2.4.3-3.6,1.3-7.1,4.2-3.3,4.7-3.8l-2.5-5,4-5,1.5,2-2-3.5,3-15.5c-3.9,1.5-7.2-.3-11.5,0s-10.6,4.1-15.5-1l1,3-5-2,.5,3c-2.5-2.6-7.7-1-11.1-2.5s-3.3-4.1-6.4-3.6v-2.5s2-1,2-1l-1-8.5,2,1,2-7.5-3-1.5-1,5c-1.5-6.3-2.2-11.7-.5-18l8.5-3,2,4-1-4,9.5-1,.5,3-2.6-.9-1.4,1.9h4.4c0-.1,1.7-5,1.7-5l8,1-2,3,6-1-2-3h4s-.5,4-.5,4l4.5-3.5-3-1.5,4.8.3.2,1.7,1.6-2,12.2-1.2c2.7-5.8.8-12.1,6.2-17.3l-3-2,1.9-2.9c-2-4.5-.6-13.3,1.2-17.8s2.8-2.8,3.9-2.8l-4-1,3-5.5,2.5-.5,1.5,2.5-2,4.5,2,.5-1.3.5-.7,4c2.8-2.1,4.8-4.1,4-8l3-.5-3-1,3.5-2.5c2.9-.8.8,4.2,1.5,5l5-1,3,6c-1.1-4.6,2.9-6.3,4.4-9s.4-10.7,5.6-2.5c-4.7,1.7-1.4,5.9-3.1,9.5h-5.9c-.6,4.6,4.3-1.5,4.1,2.9h1.9c0,.1,6-7.4,6-7.4l-4,.5,2.2-4.8,3.8-1.2.5,3c1.9-3.8-.8-5.9,5.4-6.9ZM710,73.4l.9-5.9c-4.1,2.6-2.2,8.9-3,13h3s-1.1-5.4-1.1-5.4l2.1-1.6h-1.9ZM741.9,70.5l-7,2.5,4,1.5-2,3,4.9-1.1v-5.9ZM723,82.3c-.9-1.2,0-5.5-2.1-5.8-1.1,3.3-1.8,5.7.7,8.5l-1.7,2.5,6-4.5c-.6-1.7-2.7-.5-2.8-.7ZM706.9,98.5l7.5,2,1.5-6c-.3-.4-2.7,2.2-3.9,2.5-2,.4-5.9-2.3-5.1,1.5ZM719.9,104.5l-7,6,3.5,2,4.5-3.5-2.1-1,1.1-3.4ZM742.1,111.3c-.9-1,.4-4.4-2.2-4.8l1,6-6-1-3,3c1.3,3.6,5.3.2,8,1l-4,7,10-9.5c-.7-1.5-3.2-1.1-3.8-1.7ZM794.9,118.5c2.2-5.7-10.3-5.3-11-3.5l4,3.5h1.5c.4-4.3,3.6-4.7,1.5,0h4ZM787.7,120.7c-1.6-1.4-7.8.6-10.3,1.2s-2.2-1.4-1.5,1.6l11-1-4,4,6,1-1.2-6.8ZM689.9,124.5c.2-3.9-6.5-4.1-9-3.5l-13,7.5,11-3v3s-3-1-3-1l.5,3c5.7-.2,4-3.8,6.2-4.8s6.9-.7,7.3-1.2ZM769.9,122.5l-12,2v3c.4.4,5.7-1,6.7-1.4s.4-1.3.9-1.6c1.6-.8,4.3-.3,4.3-2ZM680.9,131.5c-4-.8-1,6.4-5,6l2.3.9.7,3.1,3.6-5,10.4,1c.9-4.2-4.3-.8-4.9-1.1l-1.6-2.9-3.5,1.5-2.5-1.4.5-2ZM771.9,137.5l-10,2c5.6-1.8,4.8,4,10,3l-2-2.5,2-2.5ZM801.9,146.5l-.5-8c-3.5,1.3-3.7,17.9,1.5,12.5l-2-2.5,3,.5,1.9-4.5-4,2ZM817.9,138.5l-7,3.5,2,1.5-3,1,2,3c1.2-1.3,3.7-3.7,4.5-4.9s2.4-2.9,1.4-4ZM799.9,180.5c-1.7-.7-7.4,3.7-6,5l6,2,1-4-4,.5,3-3.5ZM687.9,194.5l-9.2,15.3-3.9,13.6-5.9,2.1c7,2.7,10.3-1.2,15-5.5l-5-1.5,1,2.4-2.5,1.6c-4.2-.5,3.6-8.4,4.7-10.3,2.7-4.9,3.2-12.4,5.8-17.7ZM797.9,214.5c2.3.9,4.7-5.9,6-7.5l-3.5-7.4,1.5,6-2-.5v6.5s-5-3-5-3l3,6ZM701.9,200.5c-3.7.4-5.6,3.5-6.9,6.5s-2.1,1.6.4,3.5l6.5-10ZM796.9,240.5c.7-11.1-4.3-3.7-7,1.5l3,1.5,1-6,3,3ZM681.9,236.5c-.3-.2-3.4-.6-3.3,1.2-.5,1.2-.3,3-.8,3.9-.8,1.5-5.6,3.7-2.4,5.8l5.4-4.5c-4.2-2,2.6-5.2,1.1-6.5ZM654.9,245.5l-2,3-1.5-2-2.5,1,1,8,6-4.5-2.1-1.1,1.1-4.4ZM741.9,246.5l-2.5,2.3-3.5,6.2-7.9-.5,2,3c-1.5-.3-3.3,1.1-4.4,1s-2.8-5.2-3.6-.5c3.3,8.2,18.5-7.9,24-4.5l-1.2-2.3-3.7.3,1.8-2.2-.8-2.8ZM771.9,268.5l-7,6c4,1.2,6.2,0,10-1l-2.8-2.2-.2-2.8ZM784.9,269.5c-.6-.7-6.8,4.4-8.7,4.2l-1.2,3.7,8.7-4.7c1.8.2,1.5-3,1.3-3.2Z"/>
      <path d="M865.9,258.5c-1.8,5.1-8.8,9.6-14,8l2,3-10,1c1.8-4.2,1.5-7.6.6-12.1l-6.6-.9c-1,4.2,5.6,1.6,6,2v5s-2.7-1.9-2.7-1.9c-3.8,2.1-7.4,2.2-6.3-3.1-2.4,2-2,3.9-6,3l1.5,3,3-2,1.1,2h8.4s-2.3,4.4-2.3,4.4l-3.7-1.3-.4,1.9-3-1c-1,2.5-1.9,2.4-4.6,2.1l6,3-7.4,2.1-.6-2c-1.3,2.5-14,2.5-14,.5s8-7.7,9.5-9.5c7.4-8.5,15.4-18.7,21.8-28.1s11.3-21,17.6-30.9v2s7-4.5,7-4.5h-7c1.6-3.9,2.8-13.8,8-11.5l-.5-2h4.4c0,0,1.1-2.5,1.1-2.5l-2-1.5-4,3-1-4.5,3-4-2-1,2-5.5,2,1.5,2-1c-2.9-2.2-2.2-4.6,0-7l-2.1-1.9,3.2-9-2-2.5c2.6-1.3,4.3,4.3,6,3s-3.1-4.8-2-6c5.1.4,4.7-4.5,6-7.3s3.7-.7,1.5-2.7l-5.5,1,2,3.4-2.1,3.4c-3.3-2.2-1.1,2.4-3.8,3.2l-.8-4.6,2.7-2.4-2-.6c.7-5.1,2-11.3,2.5-16.3s1.1-10.7,1.6-15.8-1.5-4.5-.6-6.4c3.3-3.4,7.8-2.9,11.9-1.9l2.2-3.1,1,4c1.8-3.7,9-2.9,13-4l-1.5,3,3,1v-2.9c0,0,5,0,5,0l-1,3h2.5s1.4-3.5,1.4-3.5c4.9-2,5.2.8,7.6,3.6s2.3.9,2.4,1.1c.2.3-1.9,5.3,0,7.3l-2.9,2.1,3.1,1c-.4,2.1.4,4.8,0,6.8s-1.9.6-2,1.4c-.3,1.7,1.7,10.4,1,11.3l-3-1,1,4,3,.5-6,1.5,1.4,1.9,2.6-.9c-2.2,5.5.6,12.4,0,17.3s-1.6.6-1.8,1.2c-.4,1.4-.3,3.8-1.3,5.5l-2.5-2-1.5,2.5,4,.5c2.2,2.2-5.4,30.1-9,33.5l1.9,1.9c-3.2,4.9-5.9,15.2-12.9,13.6l4,4-4,.5,3,2-7,10.5-7-1v3s2.4-1.9,2.4-1.9l2.6,1v2.8c-.1,0-9.4,7.2-9.4,7.2l-1-2-4.5,4.5,2,2c-2.5,3.9-6.5,4.3-9.9,6.1s-1.9,3.7-7.1,3.4c.2-.5-.1-1.4,0-2l3,1-1-3,4-2c-4.2-.7-6.3.8-7.9,4.6-.5,2,.5,1.4,1.9,1.4ZM902.9,113.5l-6,3.5,2,2.5-3.6.9-.4,4.1c5.7-2.1,5.3-6.5,8-11ZM894.8,129.4c.7-1.2-.1-3.4-1.4-3.9s-8,10-4,12l2.5-1.5-2-3,4.9-3.6ZM916.9,130.5c-1.3-3.4-4.5-1.5-7-1,.6,4.7,5.6,4.2,5,8l4-5-4.4,1-1.6-2.5,4-.5ZM914.9,144.5l-2.7,1.6.2,8.4,1-3,3.5,3-2-10ZM886.8,170.5l-3.9,1.4,3,3.5-3,.7c-1.5,2.5.1,5.2,0,6.8s-1.8.5-2,1.3c-.5,1.8.2,4.3,0,6.3l5-8.5-2-3.5,3.5-3.1-.6-4.9ZM911.9,170.5h-5s1,10,1,10l-2-2,1.5,6c1.1.5,3.8-3.8,4.3-4.7,1.1-2,2.4-4,2.2-6.3l-3,2,1-5ZM873.6,201.7l-3.7.8,2,2-4,4,8-4-2.2-2.8ZM865.9,224.5l-2-9c1.8,5.9-4.6,6.2-6,11l5-1-1-3,4,2ZM876.9,226.5v-5s-4.8,3.2-4.8,3.2l.8,8.8,1.1-6.9h2.9ZM896.9,226.5c.4-1.9,1.7-2.6-.5-4-2.9,2.9-8.6,2.8-8.5,8,5.2-2.6,5.4-5.1,12-3l-3-1ZM871.3,235.1c-1-1.3-1.7-3.1-3.4-3.6l3,6.5-3,5.5c2.8-2,7.9-2.4,5.5-7s-1.7-.8-2.1-1.4ZM888.9,232.5l-6-1,3,1c-4,5.1-1,10.1,4,4.5l-3,.5,2-5ZM874.7,246.3l-.3-3.8-.5,3c-4.3-.6-7.8,0-8,5l8.8-4.2ZM847.7,247.6l-3.8.9,2,2.5c-5.8,5.1.6,2.9,4,1.5l-2.1-4.9Z"/>
    </g>
  </g>
  <g>
    <path d="M576.6,148.8c.2.2,2.5,4.4,2.3,4.6-2.5.4-3.4,1.4-3,4l3-2,4,26.5-3.5-1.5-1.5,3,3.5,2,2.5-2-1,8-2-1v5s-3,0-3,0l1-7c-3.7-.9-.8,4.2-3.6,4.9s-5.2-4-6.4-2.9l1,4c-4.5.5-3.2-5.7-5,2,2-.9,4.2-1.3,6.5-1.4s4.7,0,4.5,1.4c-1.9,1.5-4.2.9-5.7,1.3s-.7,3-5.6,1.8-6-14.3-8.6-15.6l3-2.5h-3.9c-2.4-5.2-9-28.8-.6-30l1,2.1,7.5-2,.5,3,4.5-3c3.3,5.8-5.2,10.4,0,14v-5s3,3,3,3c-.4-4-1.7-6.6,2-9.5l-3-.5c-.4-3.6,3.6-7.7,6.7-4.6ZM571.9,175.5h-3.5c0-.1-1.5,5-1.5,5-2.5.5-2.9-3.5-5-.5l2,4.5,8-9Z"/>
    <path d="M552.9,202.5c0,.1,1.4.5,1.8,1.7,1.5,5.1-1.3,5.3-3.8,8.9l-3.5-2.5-3,5-4.5-2,1,3c-2.2,1.7-6.1-4.6-7.2-6.3-4.8-8-10.3-20.6-13.3-29.7s-2.9-8.8-2.4-9.8l6.9-2.2-1-3,4.6-1,2.4,3.9,7-6.5c1.9,4,4.6,5.5,3,10.5l3,.7c2.4,9.9,5.7,19.7,9,29.4l-3.1-.6-1.4-4.4-1.5,4-3-3,1,5c-3.5-.8-3.5-2.7-4.2-5.8l-2.8-.2,2-3c-3.9-.9-4,.9-6,3.5l6,2-2,2c3,.9,2,2.7,2,5.5,3.9.7.7-2.7,1-3,3.2-2.6,5.6,2,4,5,2.7-1.1,2.8-3.6,2-6l5.5,1,.5-2ZM529.9,172.5l-4,3.6,1.2,7.8,3.4,2.6,2.5-9-4,4,1-9ZM543.9,183.5l-4.4,2.7-2.5-.7,1,4-3.5-1.8c-1.7,3.7-6,.3-5.5,3.8l6,4v-4c4.9,1,6.9-4.4,9-8Z"/>
    <path d="M613.8,162.4l-1.9-1v3s2.9,0,2.9,0l1.1-4.9c3,1.7,7.4-.2,9.3.2s2.1,3.9,3.2-.2c5.9,6.6,21.5,5.2,11,17l-1.1-2.1c-4.2.3-4,2.3-5.5,4.1s-.7-3.6-3-2l1,4,5.5-4,.5,4,3,.5c-5.2,2.5-3.1,4.9-4.7,8.3s-2.8,1.9-3.1,2.4c-.7,1,2,6.9-5.2,5.8l.4,2.7,1.6.7c-1.6,4.9-4.1,8.6-7,12.8s-1.8,1-2.4,1.8c-1.4,1.9-1.1,7.1-5.6,6.9v-4s-3,3-3,3l4,4-3,.5-3-2.5v4.3s2,1.1,2,1.1l-2,3.5c-1.7.4-.6-1.4-1.1-1.8s-4.3,1.4-5.8-1.1l-1,6c.8.9,5.2-4.9,7-1l-7.7,4.3c.4,1.8-3.1,6.9-4.2,5.8-2.1-2,2.5-1.6,2-3h-2.5s-1.7,3.8-1.7,3.8h-3.9c0,.1.9,6,.9,6-10.3,6.6-16.9,19.2-29.7,21-1.1-6-7.5-5-9.8-6.8s-3.8-7.1-5.7-8.1c-1.9-3.5,5.1-8.2,6.3-4-4.2.3-2.6,2.7,1,1.3s6.3-5.4,10.9-6.4l.2-4.8-5-.5,4.5-4.5-.5,4,6-4.5-4-1,16-20,5,2c-.2,3.2-6.2,5.1-6.4,5.4s.2,1.6-.2,2.1c-.8,1.1-3.2.2-2.4,2.9h5c-.7-5.7,11.8-10.7,1-14.5,3.2-3.3,4.6-7.9,6.6-11.5s3.7-1,2.4-5.1l1.5,3c2.1-.9.5-3.4.8-3.8.7-1.3,6.4-3.6,1.7-4.8-.2-.9,0-1.8.3-2.6.6-3,7-15.2,8.9-19s5.5-2.8,0-2.3v-1.5c4.9-.1.9-9.8,6.9-8.1v-2.9c0,0,4,1.5,4,1.5l-2,4.5ZM625.8,163.6c-4.4.8-5,4.9-4.9,8.9,2.1,2.3,3.7-5.8,4-6l3,1-2.1-3.9ZM625.9,177.5l-3.6,6.5c1.4,2.6,2.6,5.1,6,4.6l1.6-3.1-4,2v-10ZM605.9,196.4c2.1,1.7,6.4-10.8,5.9-12.9l-5,10-3-1v3s1.8-.7,1.8-.7l.2,1.7ZM621.9,204.5c-4.4-1.1-2.1,2.3-4.6,3.8s-3.3.8-4.7,1.1l-.7,3,7-1-1-2,3,.5.9-2.4-1.9-1.6,2-1.5ZM598.7,206.8h-2.5s-4.2,6.7-4.2,6.7c4,.2,5.2-5.3,9-3,.8-.8-2-3.6-2.2-3.7ZM613.9,214.5l-6.6,4.4-5.4,5.6c5.7-.7,10.5-4.3,12-10ZM578.9,238.5l-1.7,1,.4,3.8-1.7.3,2.5,3,8.5-4.5-.5-2.5-7.5,3v-4Z"/>
  </g>
  <g>
    <path d="M138.9,109.5c3.4-1.9,12.2-5.9,14.5-8s1.4-1.2,1.9-2.1c3.3-5.9-4.8-29.6-2.5-38.2s6.3-2.2,0-3.7l-1,2-1.1-11.5,3-2.5-3.1-.5-.9-23.5,4.5,4,1.5-4-3,2v-2.9c0,0-4,0-4,0,1.1-2.6-.6-7.1,2-8l1,3-2-6,2-1-3-1.5,2.1-6.4c2.4.3,5.6-1,7.7-.4s11.7,10.5,14.2,11.8l-2,2.5,4-1c-.7,3.4,4.2,4,3,6s-2.5-2.5-2,.5l4,.5-2,4c7.9-1.2,7.3,4.1,10.6,8s8.8,5.7,7.9,12.1l2-1,8.5,10.5-3,1,3,4.5,1-2.3,2-.7c.6,3.6,5.8,3.7,4.1,7.9l3.4,1.1c-.2,5.3,2.1,3.4,3.1,4.3,1.5,1.4,1.4,7.2,7.3,5.8l-3,4c4.1-2.8,5,2.3,9,2l-.8,1.9-1.9.3-2.3,4.8,6.5-4,2.5,7,1.5-4c2.4,1.8,4.6,7.3,6.7,8.6s2-.4,3.1.4c1.8,1.3,2.7,4.1,4.7,5.5l-3,2.5c4.2-1.4,3.5,2.3,5.5,2l2.5-2,1,4.5-3,2.5,5-1,1,3,1.5-3c3,4.3,17.8,9.7,17.6,15.5l-2,2.5c4.8-2.6,4.8.7,5.8.9,2.3.7,5.6.5,7.5,1.3s7.3,5.8,7.4,6.3l-4.7,3.5,2-4-3.3-1.9-2.7.9,2,5-10.6,1.9-2.4-1.4,3-1-5-1.5,1,4-12,3c-.8,4,6.1,2,7.6,4l-.6,3,2.7-2h6.7c0,.1.6,3.5.6,3.5l2,.5c1.2-6.1,6-1.4,3.1,2.4s-13.3,0-15.5-.4l-2.6,5.5c-5.8-1.4-6.5,4.5-12,4.5,1.4,3.1,5.4,3.4,7.5,4.9s1.5,3,2.5,3.6,5.7-1.1,4,4l-21.4-.4-1.7,4.9-1-4c-2.4-.3-3,1.1-2,3l-5-1,8,10c-3.3-.4-7.4.5-10.6,0s-1.3-2.1-2.1-2.1c-1.9-.2-4.7,1.7-7.4,0l7,16h-7s1-4,1-4l-3,1-.5-5-3.5,4.5,5,3.5-10-2,.5,6-1.5-6h-4s2,1.7,2,1.7v4.2c.1,0,4,1.6,4,1.6-1.9,3-4.6.2-6.4.4s-.8,2.4-2.3,2.9c-2.2.8-5.9-.2-8.4.2l3,3c-9.2,1.3-17.7,4.7-26.8,6.7-13.6,3.1-33,7.5-46.8,9.2s-4.8-2.8-5.9-2.9c-1.7-.1-1,3-.5,4-1.2.9-7.3-.1-8.4,0s-.6,1.7-1.3,1.9c-2.3.6-5.8-.3-8.3,0,1.1-3.6,8.6-.6,8-5-3.7,1.2-11.7,0-9,6-8.2,1.1-15.9.4-23.5,4l-.3-2.8,2.8-1.7-4-2.5v7c-7.2-1.1-13.5,4.2-20.4,3.7s-10.3-2.7-8.6-5.7l-7,2v-4c-2.4,4.1-14.9-2.1-17.3-4s-.4-2.5-.8-2.8c-.8-.8-9.6.4-6.9-6.2-7.7,2.4-11.3-6.7-17-10.5l3-1-.5-2.5-3,2-4.4-3.2,1.2-4.6c3.1-2,6.7-1.4,8.2-5.3l-.5,3c4.9-3,9.6,1.7,15.5,2,3.8-3.4-4.5-2.7-6.7-3.2s-5.9-1.2-6.8-2.7c5.1,1.3,6.7-2,9.2-3.3s3.4-.3,4.8-1.2.5-3.5,3-2.4-2.5,2.8,1,2v-2.8c.1,0,8-2.2,8-2.2.9,3.6-2.3,3.2-4,5.5l16-6.5v-2s-9.7,3.8-9.7,3.8l-1.3-1.8c3.4-1.4,7.6-3,10.9-4.6,8.9-4.4,17.7-9.2,26-15s6.9-6.9,11.1-7.4c-2.5-3.9,2.6-6.9,4.8-10.7s1-4.2,1.2-4.3c.3-.3,2.1.7,3.1.5,2.5-.6,3.7-6.5,5.5-9.4,3.5-5.3,9.3-8.3,12.4-13.1l4,2-.6-3c6.5-6.1,14.7-8.8,22.6-13-.4,2.8.5,1.7,2.4,2.2,4.2,1,7.7-.3,7.6-5.2-3.1,2.6-5.9,3.5-10,3ZM162.9,25.5l3.8-6.7c1.2-1,1.3-2.9-.3-3.3s-1.5,3.4-4,3l.5,3h-4c-.7,3.8,2,.6,3.1,1.5l1,2.6ZM171.9,31.5l-5-1,2,2-1,7,4-4.5-2-.5,2-3ZM197.9,64.5c-4-4.8-8.4,3.5-13.4.1-3,.7-.8,10.5.4,8.9,0-7.6,1.7-4.7,3.3-5.3,3.2-1.3,5.6-4.4,9.7-3.7ZM222.9,75.5l-9-2v4c-6.2-.4-1.8,5.5,2,1l1,4,2-3.5-2-2.5,6-1ZM199.1,92.3c-.2-.2,1-2.2-.7-2.8l-4.5,2,2,6,4-3,1,3.6,4.1-1.5-3-.5v-1.5s3,.5,3,.5c-1.1-1.9-4.9-1.7-5.8-2.7ZM170.9,95.5l-7,1c0,5.1,5.4,3,5,9l3-1.5-2.1-1.9,1.1-6.5ZM239.9,101.5c-2.2.7-3.8,0-4,3-2.8-2-5.4-2.2-7.9.5,1.4,1.9,7.7.8,9.3.3s3-2,2.7-3.8ZM172.9,111.5l-4.5,3,1,2c5.8-2.7,19.5,6,19.5-5h-3s1,3,1,3l-5-1c-.6,5.7-3.1-3.1-7.4-2s0,2.6-2.1,2l.5-2ZM164.9,116.5l-6.2,6.3c-4.2,2.9-12.4,3.6-12.8,9.7,2.7.6,2.7-2.8,4-3.5s6.7-1.6,8.6-2.9c4.4-2.7,2.7-2.8,3.6-5.1s3.7-1.1,2.7-4.6ZM197.9,145.5c2.4,2.2,6.6-10.3,6.6-11.9l-1.2-2h-3.4c0,0,3,3.4,3,3.4l-6,4,3,.5-2,6ZM244.3,136.1c-.7-1.1-.8-3.1-1.9-3.6l-3,3-4.5-2c0,3.9,3.9,4.3,7,4-1.7,3.2,2.3,4,1.1.4l2.9-.5c.4-1.5-1.2-.7-1.6-1.3ZM176.9,137.5c-2.3-2.1-31,12.4-34.5,16l-2.5-3.5c3.9-.9,2-3.8-.3-1.5s-.9,3.4-1.7,4.3c-4.5,5.6-10.9,7.8-16.8,11s-2.8,3.7-4.1,4.6-13.2,7.7-11.2,10c3.7-2.3,8.6,0,12.3-1s.7-2,1.3-2c3-.2,10.2,1.9,14,1.5s4.5-2.3,6.9-2.5l2.1,4.9,3.4-2.2-.9-1.8c3.8,1.9,2.5-.5,3.7-.9s2.9,0,4.9-1c5.9-3,9.4-13.3,13-19s11.8-15.8,10.4-17.1ZM123.9,144.5c3.4,1.6,10.8-1,11-4.5s-4.1,2-4.6,2.2c-.9.4-4-.5-5.6.3s-.7,1.9-.7,2c-4.8,3.5-8.3,7.4-13,11l5,1,.5-3,2.5,2-.9-4.8,6-2.6v-3.6ZM263.9,140.5h-8s-1,6-1,6l9-3v-3ZM217.9,154.5l-11.4,6.1c-1.6.3-2.2,3.3-1.6,3.9,1.6,1.7,5.7-4.2,6.7-5,1.6-1.3,5.5-.8,6.3-5ZM203.9,159.5l-9,4,2,2-3,1.5,2.5,2.5c1-3.5,5.3-3.2,4.5-7l3,1v-4ZM100.8,162.6l-6.9-2.1c-.2,1.6,1.5.6,2.3,2.2s1.8,6.3,2.7,8.8l1.9-8.9ZM254.9,161.5l-13.6.9-1.4,2.1h5s-2,4-2,4l5.5,2,2.5-7,4,4v-6ZM84.9,178.5l2-3.5-5.9-2.5v3s4,0,4,0l-3,2.5,1.1,2.4h4.3c0,.1.6-2.9.6-2.9l-3,1ZM197.9,175.5l-11.3,2c-2.3,1,.2,5.9,2,1h4.3c0,3.2.1,5.6,4,5l-2-2.4,3-5.6ZM232.9,177.5c-3.8-.6-6.1,1.1-6,5l-1-2-4,1.5,6.4,2.6,1.1-1.9,2.5.9-2-5,3-1ZM130.9,178.5h-4c1.7,3.6,1.1,5.5-3,4l-.2,2.8-4.8,2.2c1.5,1,10.5-2.7,10.8-3.2.6-.9,0-4.3,1.2-5.8ZM68.9,189.5l13-4.5c-1.5-2.2-1.9-.9-3.5-.6s-12,2.8-9.4,5.1ZM108.9,190.5c-6.2-8.1-9.8,2.3-16,.3l-1,1.7,5.4,2.1,6.1-5,4.5,5-2-4.5,3,.5ZM56.9,189.5h-3s1,2,1,2l-5.6,1,.6,4,2-3,5,.5v-4.5ZM170.9,192.5l-10,1.5-1,3.5,11-5ZM78.9,205.5l-3,1.5,2,2-2,2.5,4-2v4s4-1,4-1c1,1.1-3.2,5.9,1,5v-6.5c-2.8-.4-6.7-2.1-6-5.5ZM37.7,210.6c-3.4-2-9.6,2.6-11.4,2.5s-2.3-2.9-3.5-1.1l2.4,2.6,10-3.1,1,5,2.5-2.4-1.2-3.4Z"/>
    <path d="M143.9,62.5c1.8,3.2,4.2,12,1,14l-2-3,2.9,12.9-2.9.5,2,5.5-4-1,.5,3-4,3.9-.5-3h-5.9c0,0-11.9-59.8-11.9-59.8l2.9-4c7.4-1.6,5.5,5.5,5.9,5.9,2.4,2.7,1.2-4.8,4-3-.2,4.9,5.1,8.8,7.1,12.4s4.9,12.2,4.9,15.6c0-.1-1.6-.5-1-2.2l-4-.7c-.2,2.3,3.5-.5,3,2.5s-4.9,2.8-4,6.5c3.3-1,6-2.6,6-6Z"/>
  </g>
</svg>