<?xml version="1.0" encoding="UTF-8"?>
<svg id="_レイヤー_1" data-name="レイヤー_1" xmlns="http://www.w3.org/2000/svg" version="1.1" viewBox="0 0 586.81 133.28">
  <!-- Generator: Adobe Illustrator 30.1.0, SVG Export Plug-In . SVG Version: 2.1.1 Build 136)  -->
  <path d="M408.92,73.61c10.29.31,18.9-6.09,22.81-15.03,4.74-10.84,4.69-23.85-1.63-34.09-10.23-16.59-32.83-12.83-49.77-12.85l-.14,98.63c-.02,14.12,11.47,13.92,10.93,17.72-.11.75-1.77,1.53-2.71,1.53l-35.94-.03c-.98,0-2.4-.46-2.9-.75-4.07-2.34,10.62-4.21,10.6-17.52l-.11-91.6c-.01-9.15-8.89-12.41-10.98-14.71-.38-.42,1.13-2.31,2.12-2.3l63.58.16c12.86.03,23.36,5.6,31.84,14.21,10.64,12.93,12.15,30.89,3.8,45.36-6.75,10.09-16.74,15.8-29.7,18.28l23.17,33c3.41,4.86,8.79,8.84,13.65,11.21l3.25,1.23c.83.31-.5,3.65-1.44,3.71-16.28,1.04-26.55,2.06-35.17-10.29-9.8-14.03-19.21-27.75-29.97-41.1-1.06-1.31-4.78-3.8-2.31-5.3l17.01.51Z"/>
  <path d="M582.59,125.32c2.24.3,3.91.59,4.18,1.42.33.99-1.35,3.59-2.53,3.63-17.27.55-27.12,1.22-39.53-12.61l-42.42-47.3-6,5.79.06,35.1c.02,9.84,6.22,11.96,10.24,15.45.46.4-.87,2.86-1.76,2.86l-36.33.03c-1.08,0-2.31-.44-2.73-.8-3.3-2.85,10.33-4.67,10.33-16.71V20.49c0-12.21-12.75-13.22-11.12-16.62.26-.55,1.5-1.27,2.66-1.27h38.56c.98,0,1.88,2.88,1.37,3.23l-2.29,1.57c-6,2.74-8.92,9.24-8.9,15.87l.09,41.71,47.06-48.33c.99-1.02,1.92-4.41,1.88-5.78-.1-3.63-3.24-2.27-4.46-7.03-.15-.59,1.61-1.24,2.34-1.24l30.6-.1.68,3.33c.17.85-1.92,1.18-3.39,1.38-6.1,2.03-11.97,5.56-16.64,10.45l-37.51,39.32,50.18,57.27c4.26,4.86,9.43,8.66,15.39,11.07Z"/>
  <path d="M174.25,11.91c-9.9-.76-19.14-.43-29-.43l.06,100.74c0,9.11,7.3,11.82,10.37,14.56.46.41-1.03,2.81-1.91,2.81l-36.24-.03c-1.06,0-3.02-.96-2.92-1.65.51-3.67,10.66-5,10.66-16.68V20.39c-.01-12.13-12.47-13.5-11.21-16.46.23-.55,1.57-1.4,2.21-1.4l65.94.28c14.4.06,28.69,6.83,37.03,18.67,11.47,16.29,10.66,39.57-1.34,55.26-9.84,12.86-26.16,17.09-41.58,14.71-15.26-2.36-26.39-17.93-20.84-19.73.97-.31,2.77.62,3.74,1.74,10.13,11.68,29.25,12.15,39.19.03,6.93-8.46,8.18-19.4,7.46-29.94-1.18-17.27-13.73-30.27-31.6-31.65Z"/>
  <path d="M79.2,128.79c-16.23,6-32.67,4.44-48.6-.88l-11.17-3.73c-9.82-3.28-14.11,7.12-15.73,9-.46.53-2.72-1.34-2.72-2.13l-.02-39.09c0-.89,2.26-2.51,2.78-2.16,4.6,3.01,3.02,13,18.68,23.37,13.33,8.83,28.51,13.4,44.46,10.79,13.93-2.27,25.41-11.94,22.68-26.34-1.21-6.35-6.24-12.02-13.37-14.46-18.36-6.27-33.38-5.98-55.29-14.28C6.62,63.5-1.38,50.54.2,35.14,2.06,16.94,16.24,3.12,34.49.58c30.49-4.25,45.72,16.72,52.18,3.03.42-.88,1.53-2.14,2.14-2.64s2.98.93,2.99,1.92l.05,38.95c0,.96-1.36,2.71-2.13,2.97-5.53,1.86-.73-14.55-20.27-27.65-14.14-9.48-34.63-13.09-48.26-1.95-4.9,4-7.65,9.54-7.32,15.59.78,14.5,15.09,19.42,27.79,22.23l35.24,7.8c8.54,1.89,17.12,6.39,21.82,13.87,12.57,20.02,2.93,45.79-19.52,54.08Z"/>
  <path d="M309.67,109.71c-14.36-15.59-40.24-25.72-61.5-17.33-3.48,7.72-6.72,15.3-9.7,23.26-1.58,4.23,1.62,7.85,4.66,9.8l2.29,1.47c.49.31-.76,2.77-1.5,2.77h-28.48c-.8,0-2.65-1.18-2.5-1.81,1.07-4.47,9.98-1.17,16.61-16.26l40.68-92.46c2.69-6.12-5.56-12.44-9.91-13.4-.64-.14-1.82-.83-2.19-1.02-.54-.27.82-2.77,1.55-2.77l25.53.24,47.29,110.65c4.61,10.79,10.7,10.77,13.41,14.01.43.52-1.24,2.75-2.24,2.74l-37.1-.32c-1.43-.01.76-4.42,1.86-4.98,5-2.51,5.01-10.5,1.25-14.59ZM274.6,81.85c10.54,2.35,19.49,6.87,28.89,12.25l-28.02-63.75-22.93,51.88c7.62-1.24,14.53-1.5,22.06-.38Z"/>
</svg>