<?xml version="1.0" encoding="UTF-8"?>
<svg id="_レイヤー_1" data-name="レイヤー_1" xmlns="http://www.w3.org/2000/svg" version="1.1" viewBox="0 0 471 156.6">
  <!-- Generator: Adobe Illustrator 30.0.0, SVG Export Plug-In . SVG Version: 2.1.1 Build 123)  -->
  <polyline points="89 19.6 123 19.6 123 156.6 89 156.6 89 103.6 34 103.6 34 156.6 0 156.6 0 19.6 34 19.6 34 72.6 89 72.6"/>
  <polygon points="189 46.1 189 156.6 155 156.6 155 46.1 172 55.9 189 46.1"/>
  <polygon points="189 29.4 189 9.8 172 0 155 9.8 155 29.4 172 39.3 189 29.4"/>
  <polygon points="471 19.6 471 50.6 404 50.6 404 71.1 405.5 72.6 464 72.6 464 102.6 404 102.6 404 124.6 471 124.6 471 156.6 371 156.6 371 19.6 471 19.6"/>
  <polygon points="318 19.6 280.2 95.2 243 19.6 208 19.6 279.6 156.6 352 19.6 318 19.6"/>
</svg>