<?xml version="1.0" encoding="UTF-8"?>
<svg id="_レイヤー_1" data-name="レイヤー_1" xmlns="http://www.w3.org/2000/svg" version="1.1" viewBox="0 0 566.92 164.39">
  <!-- Generator: Adobe Illustrator 30.1.0, SVG Export Plug-In . SVG Version: 2.1.1 Build 136)  -->
  <path d="M21.07,159.73c-6.53,4.12-13.79,5.41-21.03,3.68l.13-16.15c5.94-.14,8.83-4.18,8.82-9.36l-.11-44.98c0-3.9-3.73-8.54-5.21-11.93,2.83-4.7,5.13-9.53,5.13-15.14l-.02-41.6c0-4.46-3.93-7.5-8.58-7.57L0,.59c6.97-1.49,13.73-.11,19.97,3.69C27.39,0,35.3-.4,43.28.69c14.45,1.96,24.8,11.47,28.52,25.65,7.27,27.68.19,40.1,10.03,55.38-3.32,5.55-5.86,11.36-5.86,18.12,0,16.98-1.15,45.46-15.14,56.56-11.23,8.92-27.11,10.05-39.76,3.33ZM53.63,96.87c.36-5.81-4.56-11.16-3.58-16l3.04-14.92c-.07.33,1.66-37.77-8.35-43.41-3.99-2.25-8.99-2.23-13.47-1.5l-.11,46.94c-.01,4.96,2.38,9.39,4.6,13.62-1.35,3.09-4.45,7.71-4.44,11.19l.13,49.27c4.01,1.69,9.11,1.65,13.61-.58,9.09-4.5,7.8-32.18,8.57-44.62Z"/>
  <path d="M543.26,158.47c-12.66,9.15-30.5,7.43-41.24-3.32-12.49-12.5-13.81-39.14-13.93-56.32-.04-6.52-2.09-11.94-5.89-17.32,2.97-4.76,5.31-10.52,5.52-16.53.49-13.98,1.89-27.49,5.82-40.6,3.56-11.85,12.02-20.83,22.77-23.28,12.3-2.81,24.82.16,32.49,10.06,10.41,13.45,11.68,36.78,12.11,53.72.15,6.03,2.66,11.68,6.01,16.25-3.47,5.36-5.99,11-6.06,17.76-.19,17.77-1.76,48.14-17.6,59.58ZM529.99,141.11c2.99-3.4,4.52-8.16,5.02-12.4,1.44-12.38,2.03-24.01,1.82-36.59-.06-3.4-3.32-8-4.57-11.03,2.88-4.79,4.77-9.61,4.67-15.21-.23-12.44-.09-24.64-2.93-36.46-1.19-4.92-4.86-8.33-9.25-8.37s-8.16,3.16-9.53,7.99c-3.38,11.9-3.11,24.2-3.58,36.85-.21,5.48,2.05,10.61,4.42,15.06-2.15,4.82-4.74,10.25-4.46,15.89.58,12.06-.44,40.14,9.13,45.43,2.35,1.3,7.23,1.18,9.28-1.16Z"/>
  <path d="M318.22,113.5c0,3.78,2.52,5.51,6.52,6.3l.28,9.85c-5.29,1.15-9.18-.76-14.05-1.26-4.18-.44-8.7,3.02-13.92,1.09v-9.47c2.92-1.3,6-2.96,5.99-6.2l-.07-29.87-2.8-6.95c1.83-3.54,3.27-7.12,3.24-10.99l-.17-22.24c-.03-3.36-2.1-5.42-5.92-6.06l-.08-10.19c4.48.13,9.12.92,12.88,1.48,13.6-4.08,34.77-1.82,36.69,15.3,1.2,10.75,2.35,27.87-9.02,33.57,5.04,2.37,8.92,6.75,9.03,12.42l.42,22.6c.08,4.02,1.99,6.37,6.6,6.61l-.13,9.81c-4.18,1.28-8.11,1.88-12.16,1.16-5.58-.99-9.98-6-10.01-11.78l-.09-23.9c-.01-3.27-1.09-7.12-3.64-8.86-2.42-1.64-6.16-1.8-9.66-1.04l.06,28.62ZM331.99,62.87l-.13-15.85c-.02-2.7-2.99-5.89-5.13-6.66-2.31-.83-6.47-.87-8.53.33l.09,30.58c2.48,1.16,7.28.66,9.71-.89,1.9-1.21,4.01-4.89,3.99-7.5Z"/>
  <path d="M425.19,130.3c-.08-4.17-.06-7.93.31-10.47,3.22-1.44,5.47-2.86,5.47-5.83l-.02-28.25c0-2.21-1.67-5.59-2.68-8.09l2.61-5.97.12-27.9c.01-3.12-2.37-5.23-5.71-6.17l-.13-9.96c5.01-.06,8.94.41,13.28,1.47,13.7-4.3,29.58-1.18,33.94,14.64,4.84,17.55.37,23.23,6.18,34.81-6.1,10.53-1.39,17.49-6.08,35.46-4.14,15.86-19.5,18.69-33.41,14.16-4.53,1.24-7.69,1.73-13.88,2.11ZM459.06,82.85c-1.04-4.28-1.19-5.12-.08-9.3,2.09-7.9.99-17.04-.14-25.36-.81-5.94-6.93-9.59-12.78-7.6l.04,29.54c0,2.25,1.68,5.5,2.75,7.84l-2.59,5.92.03,32.89c3.3.58,6.74.54,9.07-.86,6.27-3.77,5.17-27.09,3.72-33.06Z"/>
  <path d="M118.07,113.65c1.46-6.07.65-12.24,1.04-18.22l10.88.11.11,34.06-44.15-.05-.2-9.87c3.09-1.06,5.66-2.73,5.67-5.65l.08-25.29c.01-3.92-1.62-8.19-2.8-11.83.89-2.24,2.85-6.38,2.86-8.8l.02-24.37c0-3.32-1.9-5.04-5.4-6.47v-9.5s43.72.04,43.72.04l.17,32.52-11.22.05c-.04-5.8.12-10.49-.48-15.99-.49-4.5-9.55-5.69-11.64-2.5v28.16s13.08.44,13.08.44v13.77s-13.35.51-13.35.51l.27,30.9c2.67,1.57,10.29,2.39,11.35-2.02Z"/>
  <path d="M276.04,114.6c1.84-6.27.9-12.06,1.14-18.92l11.25-.07.11,34.22-44.32-.11c-.16-3.28-.16-7.6.48-9.75,2.32-1.39,5.14-3.02,5.16-5.23l.21-26c.03-3.75-3.01-8.51-2.19-11.82l2.42-9.84-.28-24.35c-.03-2.76-2.59-4.43-5.73-5.17l.23-9.61,43.86-.06.12,32.47-11.32.38c-.17-6.04.04-10.92-.67-16.6-.52-4.14-8.81-5.02-11.41-2.2l-.13,28.54,13.02.06.24,13.75-13.3.44.13,31.08c2.29,1.59,9.9,2.51,10.99-1.2Z"/>
  <path d="M149.04,127.3c-3.17,1.7-6.55,3.18-10.49,1.98l.16-34.29,12.04.04.34,15c.1,4.15,3.47,7.41,6.67,7.98,4.45.79,8.6-1.21,9.76-5.75,2.6-10.23-6.25-26.7-18.13-24.85l.34-7.05-7.38-12.52c-8.69-14.74-5.26-37.17,9.22-41.4,6.34-1.86,11.74.65,16.74,3.23,3.06-1.51,6.85-2.59,10.81-1.79l.09,33.68-11.92.38c-.14-6.53.24-11.71-.87-17.39-.77-3.92-5.93-6.09-8.68-5.6-3.94.7-6.21,4.64-5.95,9.03.49,8.2,5,15.76,11.97,20.21l6.27,1.64c-.23,5.8,1.69,10.03,4.63,14.46,6.1,9.2,8.98,19.59,6.41,30.3-1.68,6.98-6.09,12.34-11.42,14.7-6.92,3.07-14.2,1.75-20.62-1.98Z"/>
  <path d="M188.17,129.25l.38-9.77c4.04-.6,6.11-2.93,6.12-6.52l.04-27.25c0-2.37-1.54-5.55-2.73-8.26l2.78-7.03.24-25.6c.04-4.1-2.01-6.71-6.45-7.07l.07-10c4.65-.33,9.12.27,13.59,1.7,5.18-1.69,10.67-2.62,16.25-1.94,10.12,1.24,17.96,8.2,19.74,18.54,2.24,13.06,2.85,35.45-12.01,41.81-5.08,2.17-10.31,2.1-16.62,1.92l-.2,22.09c-.04,4.28,1.51,6.79,6.52,7.82l.33,9.8c-5.47,1.52-9.51-1.36-14.1-1.58-4.3-.2-8.66,3.56-13.98,1.33ZM223.48,48.71c-.29-2.75-2.57-6.22-4.43-7.35-2.33-1.42-6.64-1.61-9.18-.57l-.03,35.39c2.43.9,6.33.93,8.89.07,7.19-2.43,5.44-21.05,4.75-27.54Z"/>
  <path d="M396.73,117.98l-1.74-13.32-16.25-.12-1.78,11.63c-.22,1.44,3.72,3.14,4.49,4.32,1.2,1.84.85,6.55.48,9.4l-10.66-.72-11.71.59.39-9.69c2.88-1.36,5.43-2.96,5.85-5.62l4.84-30.69-2.09-6.45c1.58-2.05,3.9-4.83,4.29-6.91l4.95-26.57c.57-3.08-1.54-5.2-4.63-6.57l-.16-9.45c5.73-.36,9.86-.1,14.58,1.42,5.17-1.48,10.35-2.04,16.12-1.54l-.05,9.65c-2.52.65-5.58,2.74-5.1,5.23l5.3,27.59c.46,2.37,3.33,4.98,5.5,7.08l-2.63,6.57,4.51,29.08c.58,3.77,2.67,6.28,6.66,7.14l.04,10.17-13.11-1.36c-3.85-.4-8.86,1.74-13.15.88l-.06-9.46,5.13-2.26ZM392.98,92.71l-6.41-37.33-5.92,37.57,12.33-.24Z"/>
</svg>